<svg width="791" height="281" viewBox="0 0 791 281" fill="none" xmlns="http://www.w3.org/2000/svg">
<path d="M791 158C791 174.569 777.569 188 761 188H728C711.431 188 698 201.431 698 218V251C698 267.569 684.569 281 668 281H30C13.4315 281 0 267.569 0 251V30C0 13.4315 13.4315 0 30 0H761C777.569 0 791 13.4315 791 30V158Z" fill="black"/>
<rect x="55" y="43" width="195" height="195" rx="30" fill="white"/>
<path d="M136.25 213.625C127.313 213.625 119.661 210.443 113.297 204.078C106.932 197.714 103.75 190.063 103.75 181.125C103.75 172.188 106.932 164.536 113.297 158.172C119.661 151.807 127.313 148.625 136.25 148.625C139.365 148.625 142.208 149.031 144.781 149.844C147.49 150.521 150.063 151.604 152.5 153.094V67.375H201.25V99.875H168.75V181.125C168.75 190.063 165.568 197.714 159.203 204.078C152.839 210.443 145.187 213.625 136.25 213.625Z" fill="black"/>
<path d="M333.545 186.768H323.561C322.025 186.768 321.086 185.829 320.745 183.952C320.318 182.928 320.105 181.221 320.105 178.832C320.105 175.077 320.062 171.579 319.977 168.336C319.977 165.008 319.934 161.893 319.849 158.992C319.764 154.811 319.678 150.544 319.593 146.192C319.508 141.755 319.465 137.189 319.465 132.496V104.336C319.465 103.568 319.806 102.843 320.489 102.16C321.257 101.392 322.025 101.008 322.793 101.008L337.513 101.136C338.878 101.136 340.457 101.179 342.249 101.264C344.041 101.264 346.046 101.264 348.265 101.264C351.508 101.264 354.366 101.264 356.841 101.264C359.316 101.264 361.406 101.221 363.113 101.136L367.849 101.008C370.409 100.923 372.756 100.88 374.889 100.88C377.022 100.795 378.9 100.752 380.521 100.752C385.897 100.752 391.188 101.605 396.393 103.312C401.684 104.933 406.164 107.792 409.833 111.888C413.844 116.411 415.849 122.512 415.849 130.192C415.849 143.163 412.564 152.549 405.993 158.352C400.276 163.813 391.614 166.544 380.009 166.544H362.473C362.558 167.483 362.601 168.507 362.601 169.616C362.601 170.64 362.601 171.707 362.601 172.816V175.504C362.601 176.101 362.558 176.741 362.473 177.424C362.473 178.107 362.473 178.917 362.473 179.856C362.473 182.672 361.918 184.464 360.809 185.232C359.785 186 357.993 186.384 355.433 186.384C353.556 186.384 351.934 186.384 350.569 186.384C349.289 186.384 348.308 186.427 347.625 186.512C344.724 186.512 342.078 186.555 339.689 186.64C337.3 186.725 335.252 186.768 333.545 186.768ZM365.801 152.464H369.513C371.476 152.464 372.884 151.056 373.737 148.24C374.59 145.339 375.145 141.627 375.401 137.104C375.486 135.909 375.529 134.629 375.529 133.264C375.614 131.813 375.657 130.32 375.657 128.784V127.376C375.657 126.011 375.444 124.304 375.017 122.256C374.59 120.123 374.164 118.629 373.737 117.776C373.31 116.837 372.841 116.112 372.329 115.6C371.817 115.088 371.134 114.832 370.281 114.832C369.769 114.832 368.916 114.747 367.721 114.576C366.612 114.405 365.929 114.576 365.673 115.088C364.649 116.624 364.18 118.885 364.265 121.872C364.436 124.859 364.393 128.613 364.137 133.136C363.966 136.891 363.796 139.835 363.625 141.968C363.54 144.101 363.497 145.893 363.497 147.344C363.582 148.795 363.625 150.373 363.625 152.08C363.625 152.08 363.796 152.165 364.137 152.336L365.801 152.464ZM482.676 187.28H463.348C458.825 187.28 454.9 187.237 451.572 187.152C448.244 187.152 445.556 187.152 443.508 187.152C441.545 187.152 439.839 187.109 438.388 187.024C436.937 187.024 435.743 187.024 434.804 187.024L423.924 186.896C423.071 186.896 422.26 186.555 421.492 185.872C420.809 185.104 420.468 184.293 420.468 183.44V141.584L420.34 134.416C420.255 130.661 420.34 127.12 420.596 123.792C420.937 120.464 421.108 116.453 421.108 111.76V108.688C421.108 106.043 421.535 104.037 422.388 102.672C422.815 101.904 423.583 101.52 424.692 101.52C426.911 101.52 429.172 101.563 431.476 101.648C433.78 101.648 436.212 101.691 438.772 101.776C439.113 101.861 439.583 101.904 440.18 101.904C440.777 101.904 441.375 101.904 441.972 101.904C443.423 101.904 444.66 101.904 445.684 101.904C446.793 101.904 447.689 101.947 448.372 102.032H458.868C460.489 102.032 461.94 102.373 463.22 103.056C464.5 103.653 465.14 105.573 465.14 108.816L465.012 109.84C465.012 110.011 464.969 110.267 464.884 110.608C464.884 110.949 464.884 111.419 464.884 112.016C464.543 113.125 464.372 114.064 464.372 114.832C464.372 115.344 464.415 115.941 464.5 116.624C464.585 117.221 464.713 117.861 464.884 118.544C464.884 119.056 464.884 119.483 464.884 119.824C464.969 120.165 465.012 120.421 465.012 120.592L465.14 121.36V154.896C465.14 155.664 465.396 156.133 465.908 156.304C466.42 156.389 467.103 156.432 467.956 156.432H477.684C478.964 156.432 480.5 156.432 482.292 156.432C484.084 156.347 486.217 156.304 488.692 156.304C489.631 156.304 490.399 156.603 490.996 157.2C491.679 157.712 492.02 158.267 492.02 158.864V184.592C492.02 185.189 491.593 185.701 490.74 186.128C489.972 186.555 489.119 186.811 488.18 186.896C487.071 187.152 485.236 187.28 482.676 187.28ZM589.104 186.256C588.507 186.256 587.995 186.213 587.568 186.128C587.141 186.128 586.715 186.085 586.288 186H565.04C564.955 186 564.827 186 564.656 186C564.485 185.915 564.272 185.829 564.016 185.744H560.176L554.672 185.616C554.331 185.616 554.117 185.659 554.032 185.744C553.861 185.915 553.52 186 553.008 186H552.624L552.496 185.872C552.155 185.872 551.984 185.829 551.984 185.744C551.728 185.659 551.472 185.616 551.216 185.616C550.96 185.616 550.747 185.616 550.576 185.616C550.405 184.933 550.192 183.696 549.936 181.904C549.68 180.027 549.083 177.381 548.144 173.968L547.12 170.384H539.952C538.587 170.384 537.392 170.341 536.368 170.256C535.344 170.171 534.277 170 533.168 169.744C533.168 170.085 533.125 170.469 533.04 170.896C532.955 171.323 532.869 171.92 532.784 172.688C532.187 175.845 531.589 178.619 530.992 181.008C530.395 183.397 529.883 184.933 529.456 185.616C528.773 185.616 527.963 185.616 527.024 185.616C526.085 185.616 524.976 185.659 523.696 185.744C522.416 185.744 521.605 185.829 521.264 186H520.112C520.027 186 519.984 185.915 519.984 185.744C519.899 185.659 519.771 185.616 519.6 185.616C518.917 185.616 518.448 185.659 518.192 185.744V186H501.168C500.827 186.085 500.4 186.128 499.888 186.128C499.461 186.213 498.907 186.256 498.224 186.256H496.944C496.261 186.256 495.792 186.043 495.536 185.616C494.939 184.763 494.64 183.824 494.64 182.8C494.64 182.203 494.683 181.776 494.768 181.52C494.768 181.093 494.768 180.709 494.768 180.368C494.768 179.941 494.811 179.472 494.896 178.96C495.067 178.021 495.28 177.339 495.536 176.912C495.792 175.973 495.92 175.333 495.92 174.992C496.091 173.968 496.859 170.384 498.224 164.24C499.675 158.011 501.637 149.648 504.112 139.152C506.587 128.656 509.488 116.496 512.816 102.672C512.816 102.587 512.901 102.373 513.072 102.032C513.328 101.691 513.627 101.435 513.968 101.264H514.48L514.736 101.52C515.163 101.52 515.461 101.435 515.632 101.264C515.888 101.093 516.144 100.965 516.4 100.88C517.083 100.709 517.595 100.624 517.936 100.624C518.533 100.624 519.088 100.667 519.6 100.752C520.197 100.752 520.795 100.795 521.392 100.88C521.563 100.88 521.776 100.88 522.032 100.88C522.288 100.795 522.501 100.837 522.672 101.008C522.843 101.093 523.099 101.179 523.44 101.264C523.867 101.264 524.251 101.264 524.592 101.264C524.592 101.093 524.805 101.008 525.232 101.008C525.659 100.923 525.957 100.88 526.128 100.88C526.896 100.795 527.792 100.752 528.816 100.752C529.84 100.667 531.205 100.624 532.912 100.624H545.072C545.072 100.709 545.456 100.752 546.224 100.752C546.651 100.752 546.992 100.752 547.248 100.752C547.589 100.752 547.931 100.795 548.272 100.88H554.672C554.843 100.965 555.013 101.051 555.184 101.136C555.44 101.221 555.653 101.264 555.824 101.264C556.251 101.264 556.677 101.264 557.104 101.264C557.616 101.179 558.085 101.093 558.512 101.008C558.939 100.923 559.365 100.88 559.792 100.88C560.304 100.88 560.645 100.88 560.816 100.88C561.755 100.795 562.608 100.752 563.376 100.752C564.144 100.667 564.955 100.624 565.808 100.624C566.32 100.624 566.832 100.581 567.344 100.496C567.856 100.411 568.411 100.539 569.008 100.88C569.691 101.221 570.288 101.435 570.8 101.52C571.397 101.52 571.909 101.52 572.336 101.52C572.677 101.52 572.848 101.435 572.848 101.264H573.36C573.616 101.349 573.872 101.605 574.128 102.032C574.384 102.373 574.512 102.587 574.512 102.672C575.365 105.915 576.347 109.84 577.456 114.448C578.565 118.971 579.717 123.835 580.912 129.04C582.192 134.245 583.472 139.536 584.752 144.912C586.032 150.288 587.269 155.451 588.464 160.4C589.659 165.264 590.683 169.659 591.536 173.584C591.707 174.437 591.792 175.035 591.792 175.376C591.877 175.717 591.963 176.101 592.048 176.528C592.133 177.125 592.347 178.107 592.688 179.472C593.115 180.837 593.328 181.861 593.328 182.544C593.328 183.227 593.157 183.611 592.816 183.696C592.475 185.403 591.749 186.256 590.64 186.256H589.104ZM534.704 155.152C535.216 155.152 535.472 155.067 535.472 154.896H536.24C536.411 154.811 536.709 154.683 537.136 154.512C537.563 154.341 538.075 154.256 538.672 154.256H538.8L539.696 154.896H545.712L544.816 149.136L544.304 146.704C544.133 145.765 543.963 144.997 543.792 144.4C543.621 143.717 543.536 143.077 543.536 142.48C543.536 142.053 543.408 140.944 543.152 139.152C542.896 137.275 542.597 135.141 542.256 132.752L541.744 129.168C541.488 128.4 541.275 127.675 541.104 126.992C541.019 126.309 540.933 125.669 540.848 125.072L540.592 123.536V122.896C540.421 122.725 540.336 122.512 540.336 122.256C540.336 121.915 540.293 121.744 540.208 121.744V122.256C540.208 122.597 540.037 123.024 539.696 123.536V125.072C539.525 125.755 539.397 126.437 539.312 127.12C539.227 127.803 539.099 128.485 538.928 129.168L537.776 135.184C537.093 138.597 536.581 141.968 536.24 145.296C535.899 148.624 535.387 151.909 534.704 155.152ZM634.423 194.32V193.552H634.039C633.868 193.552 633.783 193.595 633.783 193.68L633.399 193.808C633.143 193.808 633.015 193.723 633.015 193.552L631.095 193.168C630.412 192.997 629.218 192.528 627.511 191.76C625.89 191.077 624.354 190.352 622.903 189.584C621.452 188.816 620.599 188.389 620.343 188.304C619.916 188.304 619.575 188.091 619.319 187.664C619.063 187.237 618.807 186.981 618.551 186.896L611.511 183.696C610.402 183.184 609.463 182.544 608.695 181.776C607.927 180.923 607.33 180.453 606.903 180.368L603.831 178.32C603.319 177.808 603.063 177.381 603.063 177.04C603.063 176.101 603.276 175.205 603.703 174.352C604.13 173.499 604.556 172.645 604.983 171.792C605.154 171.536 605.324 171.024 605.495 170.256C605.666 169.403 605.879 168.763 606.135 168.336C606.306 167.824 606.86 166.8 607.799 165.264C608.823 163.643 610.274 161.168 612.151 157.84C611.81 157.584 611.724 157.328 611.895 157.072C612.151 156.731 612.45 156.389 612.791 156.048C613.132 155.621 613.26 155.109 613.175 154.512C613.09 153.829 612.492 152.976 611.383 151.952C610.7 151.269 610.146 150.672 609.719 150.16C609.292 149.563 609.122 148.88 609.207 148.112C608.78 148.283 608.567 148.411 608.567 148.496H608.311L608.055 148.368C607.799 148.112 607.671 147.984 607.671 147.984C606.903 146.875 606.178 146.107 605.495 145.68C604.812 145.253 604.13 144.784 603.447 144.272C602.764 143.675 601.954 142.565 601.015 140.944C598.711 139.237 596.919 137.616 595.639 136.08C594.444 134.544 593.25 133.221 592.055 132.112C590.775 130.405 589.367 128.699 587.831 126.992C586.295 125.285 585.314 124.133 584.887 123.536C584.46 122.939 584.631 121.915 585.399 120.464C586.252 118.928 587.49 117.179 589.111 115.216C590.732 113.253 592.482 111.248 594.359 109.2C596.322 107.067 598.242 105.104 600.119 103.312C602.082 101.52 603.746 100.069 605.111 98.96C605.623 98.1067 606.348 97.9787 607.287 98.576C608.226 99.088 609.207 99.8987 610.231 101.008C611.255 102.032 612.108 102.928 612.791 103.696C613.218 103.952 613.516 104.165 613.687 104.336C613.858 104.421 614.071 104.549 614.327 104.72L615.095 106.128L615.351 105.744C615.522 105.915 615.65 106.128 615.735 106.384C615.906 106.555 616.247 106.853 616.759 107.28C618.295 108.56 619.788 109.925 621.239 111.376C622.69 112.741 624.354 114.405 626.231 116.368C628.194 118.331 630.668 120.805 633.655 123.792C633.74 123.877 634.252 123.109 635.191 121.488C636.215 119.781 637.452 117.733 638.903 115.344C640.354 112.869 641.804 110.352 643.255 107.792C644.706 105.232 645.943 103.099 646.967 101.392C647.564 100.283 648.162 99.6427 648.759 99.472C649.442 99.216 650.466 99.4293 651.831 100.112C653.708 100.965 656.055 102.245 658.871 103.952C661.687 105.573 664.588 107.323 667.575 109.2C670.562 110.992 673.207 112.571 675.511 113.936C676.108 114.277 676.748 114.789 677.431 115.472C678.199 116.155 678.242 117.093 677.559 118.288C676.706 119.739 675.639 121.659 674.359 124.048C673.164 126.437 672.14 128.485 671.287 130.192L662.711 147.216L649.143 171.024C649.058 171.024 648.674 171.664 647.991 172.944C647.308 174.139 646.412 175.675 645.303 177.552C644.279 179.429 643.17 181.392 641.975 183.44C640.866 185.403 639.842 187.152 638.903 188.688C638.05 190.309 637.452 191.376 637.111 191.888C636.684 192.997 636.258 193.68 635.831 193.936C635.404 194.192 634.935 194.32 634.423 194.32Z" fill="white"/>
</svg>
